<svg width="280" height="60" viewBox="0 0 280 60" fill="none" xmlns="http://www.w3.org/2000/svg">
<path d="M25.34 40.796C25.628 36.836 25.808 31.292 25.808 26.9C25.664 23.372 26.06 21.14 24.8 18.872C24.692 18.728 24.656 18.62 24.656 18.512C24.656 18.26 24.908 18.116 25.232 18.116C26.42 18.296 26.78 18.62 28.4 19.664C29.048 20.096 29.3 20.636 29.3 21.032C29.3 21.212 29.228 21.356 29.156 21.428C28.796 21.788 28.58 22.544 28.436 23.084C28.328 23.444 28.256 25.748 28.256 28.808C28.256 32.624 28.364 37.484 28.58 41.444C28.58 43.208 28.112 43.928 26.888 44.072C25.988 44.072 25.34 42.02 25.34 40.796ZM36.356 33.56C36.32 34.46 35.924 35.072 34.988 34.964C33.908 34.964 33.368 34.64 33.008 33.524C32.396 31.724 31.496 30.608 30.2 29.888C29.876 29.672 29.732 29.456 29.732 29.276C29.732 29.096 29.912 28.916 30.236 28.916C32.72 29.348 34.412 30.32 35.564 31.652C36.068 32.228 36.356 32.912 36.356 33.56ZM33.8 20.528C35.816 20.78 37.688 22.112 37.796 23.48C37.796 24.128 37.4 24.668 36.896 24.668C36.608 24.668 36.284 24.488 36.032 24.02C35.204 22.544 34.484 21.896 33.872 21.428C33.512 21.14 33.332 20.888 33.332 20.744C33.332 20.6 33.512 20.528 33.8 20.528ZM35.672 18.224C37.328 18.404 38.84 19.16 39.632 20.276C39.776 20.492 39.848 20.78 39.848 21.032C39.848 21.572 39.488 22.076 39.056 22.076C38.804 22.076 38.552 21.932 38.3 21.572C37.328 20.384 36.716 19.736 35.708 19.16C35.384 18.98 35.168 18.692 35.168 18.512C35.168 18.332 35.312 18.224 35.672 18.224ZM51.836 26.54C52.448 26.576 53.096 26.648 53.816 26.648C54.356 26.648 54.932 26.612 55.544 26.468C56.048 26.324 57.272 26.036 58.532 25.676C58.28 24.74 57.992 23.768 57.704 22.76C57.488 22.004 57.128 20.996 55.868 19.448C55.76 19.304 55.688 19.196 55.688 19.052C55.688 18.692 56.084 18.44 56.444 18.44C58.748 18.692 60.872 19.988 60.908 21.068C60.908 21.68 60.404 22.148 60.404 23.228C60.476 23.84 60.584 24.452 60.692 25.1C61.376 24.884 61.916 24.74 62.096 24.632C62.672 24.38 63.464 23.516 64.4 23.516C65.696 23.588 67.28 24.596 67.28 25.136C67.28 25.784 66.164 26.144 64.976 26.288C64.184 26.396 62.636 26.648 61.052 27.008C61.304 28.34 61.628 29.672 61.952 31.04C63.536 30.68 64.94 30.356 65.552 30.104C66.164 29.888 66.884 28.952 67.856 28.952C69.656 29.132 70.808 29.78 70.7 30.212C70.7 30.824 69.692 31.58 68.468 31.76C66.632 32.084 64.472 32.444 62.42 32.804C63.14 35.468 63.932 38.096 64.616 40.58C64.868 41.372 65.156 42.236 65.156 42.92C65.192 43.64 64.76 44.108 63.716 44.144C62.132 44.144 61.736 42.272 61.556 40.832C61.196 37.988 60.8 35.576 60.332 33.236C58.172 33.668 56.408 34.136 55.724 34.532C55.22 34.784 54.392 35.18 53.636 35.18C52.412 35.036 51.8 34.316 50.792 33.668C50.576 33.488 50.504 33.344 50.504 33.2C50.504 32.948 50.756 32.804 51.152 32.804H51.836C52.88 32.804 54.068 32.768 55.22 32.516C55.76 32.372 57.812 31.976 59.972 31.508C59.684 30.176 59.36 28.844 59 27.512C57.848 27.836 56.804 28.16 56.3 28.484C55.904 28.7 55.508 28.844 55.04 28.844C53.6 28.772 52.628 28.16 51.584 27.404C51.368 27.26 51.26 27.08 51.26 26.936C51.26 26.72 51.476 26.54 51.836 26.54ZM88.304 31.904C88.412 31.904 88.484 31.94 88.628 31.94C90.536 31.724 91.22 31.472 93.416 30.896C93.884 30.752 94.208 30.212 94.712 30.212C95.396 30.212 96.008 31.184 96.656 31.58C96.872 31.76 96.98 31.976 96.98 32.156C96.98 32.912 95.9 33.2 95.684 33.632C95.468 34.352 95.036 36.116 94.784 37.16C96.368 37.016 97.916 36.872 99.32 36.728C100.364 36.62 100.688 37.52 100.832 38.312C100.832 38.708 100.652 38.996 100.076 38.996C99.32 38.96 97.664 38.816 96.404 38.816C93.776 38.816 90.752 38.852 88.232 39.644C87.908 39.788 87.62 39.896 87.332 39.896C86.072 39.68 85.352 38.78 85.064 37.88C85.064 37.664 85.28 37.556 85.604 37.556C86.072 37.556 86.36 37.7 86.936 37.664C88.772 37.592 91.04 37.448 93.344 37.268L93.74 32.876C93.776 32.48 93.776 32.444 93.344 32.588C92.3 32.804 90.752 33.704 89.78 33.848C88.952 33.812 88.34 33.164 87.872 32.768C87.692 32.588 87.62 32.444 87.62 32.336C87.62 32.048 88.016 31.904 88.304 31.904ZM128.228 21.572C129.596 21.896 131.9 23.66 131.684 24.272C131.684 24.884 130.676 25.244 130.172 26.18C129.236 28.016 128.264 29.672 127.292 31.112C127.904 31.508 128.408 31.904 128.84 32.264C129.416 32.804 129.776 33.56 129.776 34.244C129.812 34.892 129.344 35.648 128.66 35.648C127.904 35.648 126.932 34.856 126.284 33.92C126.104 33.668 125.924 33.416 125.744 33.2C122.828 36.8 119.66 39.068 115.916 40.868C115.088 41.264 114.512 41.444 114.152 41.444C113.936 41.444 113.792 41.372 113.792 41.228C113.792 41.012 114.188 40.58 114.98 40.076C119.12 37.412 121.712 35 124.232 31.436C123.512 30.716 122.756 30.14 121.928 29.636C121.568 29.42 121.388 29.24 121.388 29.096C121.388 28.952 121.604 28.88 121.964 28.88C123.008 28.952 124.16 29.348 125.276 29.924C126.104 28.628 126.968 27.224 127.868 25.604C128.228 24.956 128.408 24.272 128.408 23.588C128.444 22.94 128.192 22.328 128.012 21.752C128.012 21.608 128.084 21.572 128.228 21.572ZM155.696 27.908C155.768 28.772 155.048 29.744 154.292 29.744C153.5 29.744 152.708 28.88 152.276 28.34C151.052 26.828 149.288 25.856 147.812 25.028C147.308 24.74 147.02 24.452 147.02 24.236C147.02 24.02 147.308 23.876 147.884 23.876C151.088 23.912 153.572 24.776 154.508 25.568C155.3 26.216 155.696 27.116 155.696 27.908ZM147.992 36.872C148.82 36.944 150.116 37.772 150.728 37.664C151.376 37.664 152.096 37.34 153.428 36.584C156.344 34.964 161.888 30.644 165.092 26.54C165.668 25.784 166.172 25.424 166.46 25.424C166.64 25.424 166.712 25.568 166.712 25.784C166.712 26.072 166.532 26.54 166.172 27.152C162.32 33.74 153.86 40.544 151.952 41.228C151.844 41.264 151.736 41.3 151.628 41.3C150.26 41.3 148.424 38.924 147.884 38.204C147.668 37.808 147.56 37.484 147.56 37.268C147.56 37.016 147.704 36.872 147.992 36.872ZM185.864 20.384C185.936 19.808 185.576 19.304 185.36 18.836C185.36 18.692 185.504 18.584 185.684 18.584C186.8 18.872 187.232 19.808 188.096 20.636C188.456 21.032 188.708 21.392 188.708 21.716C188.708 21.86 188.636 22.04 188.492 22.148C188.24 22.364 188.06 22.58 187.88 22.868C188.78 22.76 190.076 22.616 191.084 22.4C191.696 22.256 192.524 21.716 193.316 21.212C193.46 21.14 193.604 21.104 193.784 21.104C194.9 21.248 196.124 22.652 196.88 23.48C197.06 23.696 197.132 23.912 197.132 24.128C197.132 24.56 196.808 25.028 196.268 25.496C195.836 25.82 194.864 27.008 194.468 27.656C193.496 29.384 192.308 31.04 190.976 32.624C191.732 33.092 192.416 33.596 193.1 34.136C193.82 34.748 194.18 35.684 194.18 36.548C194.144 37.556 193.748 38.42 192.776 38.348C191.696 38.348 190.76 38.024 190.184 36.476C189.896 35.792 189.572 35.18 189.212 34.64C186.044 37.952 182.336 40.616 178.7 42.056C178.16 42.236 177.764 42.344 177.476 42.344C177.188 42.344 177.044 42.236 177.044 42.092C177.044 41.84 177.44 41.444 178.304 40.976C181.364 39.284 184.928 36.692 187.88 32.948C187.268 32.3 186.548 31.76 185.756 31.328C185.288 31.076 185.036 30.824 185.036 30.68C185.036 30.572 185.18 30.5 185.432 30.5C185.612 30.5 185.864 30.536 186.188 30.608C187.196 30.896 188.096 31.184 188.924 31.544C190.22 29.672 191.372 27.548 192.236 25.136C192.308 24.992 192.308 24.848 192.308 24.74C192.308 24.416 192.02 24.344 191.444 24.344C190.04 24.38 187.988 24.524 186.908 24.596C185.324 27.692 182.48 30.644 179.204 32.552C178.772 32.804 178.484 32.912 178.268 32.912C178.088 32.912 177.98 32.804 177.98 32.66C177.98 32.408 178.232 32.012 178.664 31.616C181.472 29.204 183.74 26.972 185.36 22.58C185.612 21.896 185.864 21.14 185.864 20.384ZM217.364 25.82C217.364 27.26 217.364 31.652 217.472 32.876C217.472 33.668 217.148 34.532 216.428 34.532C215.132 34.424 214.628 33.2 214.628 31.94C214.664 31.04 214.664 29.996 214.664 28.34C214.664 26.468 214.664 24.416 214.628 23.876C214.628 22.652 213.908 21.716 213.548 21.428C213.296 21.284 213.188 21.14 213.188 21.032C213.188 20.852 213.404 20.744 213.728 20.744C215.384 21.068 217.112 22.04 217.328 23.12C217.4 23.48 217.4 23.804 217.4 24.128C217.4 24.668 217.364 25.208 217.364 25.82ZM221.936 23.768C222.008 22.256 221.324 20.96 220.388 19.988C220.208 19.844 220.1 19.7 220.1 19.556C220.1 19.376 220.28 19.268 220.604 19.268C222.188 19.412 223.844 20.492 224.564 21.212C224.996 21.644 225.104 22.004 225.104 22.328C225.104 22.832 224.852 23.3 224.852 24.164C224.852 25.028 224.78 27.692 224.492 31.148C223.988 36.764 220.928 40.94 216.14 43.676C215.636 43.964 215.24 44.072 214.988 44.072C214.772 44.072 214.7 44 214.7 43.856C214.7 43.64 214.916 43.28 215.456 42.848C218.516 40.292 221.54 37.232 221.756 29.42C221.828 27.764 221.936 25.136 221.936 23.768ZM260.888 29.312C262.148 29.132 262.76 30.5 262.832 31.112C262.832 31.652 262.328 32.048 261.104 32.048C260.348 32.048 257.576 31.904 255.92 31.904C252.788 32.048 248.54 32.012 244.616 32.696C244.184 32.768 243.716 32.876 243.212 32.876C242.852 32.876 242.528 32.804 242.168 32.624C240.692 31.58 240.008 31.076 239.72 29.708C239.72 29.456 239.828 29.24 240.08 29.24C240.26 29.24 240.548 29.348 240.872 29.564C241.556 30.14 243.032 30.176 244.004 30.176C246.812 30.104 257.468 29.492 260.888 29.312Z" fill="white"/>
</svg>
