<svg width="280" height="60" viewBox="0 0 280 60" fill="none" xmlns="http://www.w3.org/2000/svg">
<path d="M75.2246 25.4336C73.9355 23.9395 72.6758 22.2402 71.4453 20.3359C70.5078 21.9766 69.4385 23.3682 68.2373 24.5107L65.9521 21.0391H64.1943C65.7764 26.6641 66.6113 29.7256 66.6992 30.2236C70.0098 28.9053 72.8516 27.3086 75.2246 25.4336ZM78.4766 22.9727C80.4395 21.0098 82.0215 18.9004 83.2227 16.6445H73.6426C73.7598 16.6445 73.8184 16.6592 73.8184 16.6885C75.2539 19.0615 76.8066 21.1562 78.4766 22.9727ZM84.1455 32.5967C82.0654 31.249 80.1465 29.7695 78.3887 28.1582C76.4844 29.7402 74.3164 31.2197 71.8848 32.5967H84.1455ZM55.7568 14.3594C56.9287 16.1172 57.8809 16.9961 58.6133 16.9961H59.8438V13.9639C59.8438 12.499 58.6719 11.0342 56.3281 9.56934H67.5781C65.2344 11.0342 64.0625 12.499 64.0625 13.9639V16.9961H64.4141C65.1465 16.9961 66.0986 16.1172 67.2705 14.3594V19.8086C69.3799 16.6738 71.2256 13.0264 72.8076 8.86621L76.9824 9.70117C76.543 10.7266 76.1475 11.752 75.7959 12.7773H91.7041C89.3604 13.8027 88.1885 14.7549 88.1885 15.6338V16.6445C86.3721 20.0137 84.2334 22.9727 81.7725 25.5215C84.1455 27.4844 86.9287 29.1104 90.1221 30.3994L89.375 34.6182C88.9648 34.5303 88.5547 34.4131 88.1445 34.2666C87.7344 34.0908 87.5293 33.959 87.5293 33.8711V45.2969C87.5293 46.7617 88.7012 48.2266 91.0449 49.6914H86.0791C85.3467 49.6914 84.3945 50.5703 83.2227 52.3281V47.4502H72.7197V52.3281C71.5479 50.5703 70.5957 49.6914 69.8633 49.6914H64.9854C67.3291 48.2266 68.501 46.7617 68.501 45.2969V33.6953C68.5889 33.7539 68.5156 33.8418 68.2812 33.959C68.0469 34.0762 67.9297 34.1494 67.9297 34.1787C67.9297 34.2666 67.959 34.457 68.0176 34.75C68.1055 35.043 68.1934 35.2773 68.2812 35.4531L65.1611 37.6943C64.3994 34.7939 64.0332 32.8311 64.0625 31.8057V45.6484C64.0625 47.1133 65.2344 48.5781 67.5781 50.043H56.3281C58.6719 48.5781 59.8438 47.1133 59.8438 45.6484V33.2998C59.2871 36.2295 58.4521 38.7197 57.3389 40.7705L54.8779 36.332C57.1924 31.4688 58.7891 26.3711 59.668 21.0391H58.6133C57.8809 21.0391 56.9287 21.918 55.7568 23.6758V14.3594ZM83.2227 43.6709V36.4639H72.7197V43.6709H83.2227ZM200.732 39.3203H193.965C196.309 38.2949 197.48 37.3428 197.48 36.4639V34.6621C197.48 33.7832 196.309 32.8311 193.965 31.8057H211.06C208.716 32.8311 207.544 33.7832 207.544 34.6621V36.4639C207.544 37.3428 208.716 38.2949 211.06 39.3203H200.732ZM200.952 36.7715H204.336V34.3984H200.952V36.7715ZM206.313 43.4512C206.489 43.3633 207.163 43.1875 208.335 42.9238L208.423 46.2197C204.38 47.1572 200.586 47.8018 197.041 48.1533L196.777 44.8574C198.008 44.7402 199.736 44.5059 201.963 44.1543C202.842 42.7188 203.574 41.21 204.16 39.6279L207.456 40.5947C207.046 41.5029 206.665 42.4551 206.313 43.4512ZM195.723 10.4482H210.093C207.749 11.9131 206.577 13.3779 206.577 14.8428V21.5664C206.577 23.0312 207.749 24.4961 210.093 25.9609H195.767V45.2969C195.767 46.7617 196.938 48.2266 199.282 49.6914H188.252C190.596 48.2266 191.768 46.7617 191.768 45.2969V14.8428C191.768 13.3779 190.596 11.9131 188.252 10.4482H195.723ZM195.942 16.8203H202.446V14.1396H195.942V16.8203ZM195.942 19.8965V22.6211H202.446V19.8965H195.942ZM219.058 16.8203V14.1396H212.202V16.8203H219.058ZM219.058 19.8965H212.202V22.6211H219.058V19.8965ZM213.916 40.1553L211.06 41.957C209.917 39.4082 208.687 37.1523 207.368 35.1895L210.225 33.3877C211.572 35.3799 212.803 37.6357 213.916 40.1553ZM197.041 33.124V24.6865C198.213 26.4443 199.165 27.3232 199.897 27.3232H205.259C205.991 27.3232 206.943 26.4443 208.115 24.6865V29.3447H213.564V27.0156H217.344V29.3447H218.926V32.7285H217.344V43.4072C217.344 44.2275 217.314 44.9014 217.256 45.4287C217.168 45.4287 217.183 45.4434 217.3 45.4727C217.417 45.4727 217.49 45.4727 217.52 45.4727C218.398 45.4727 218.896 45.3701 219.014 45.165C219.16 44.9307 219.233 44.2275 219.233 43.0557V25.9609H204.556C206.899 24.4961 208.071 23.0312 208.071 21.5664V14.8428C208.071 13.3779 206.899 11.9131 204.556 10.4482H219.277H226.748C224.404 11.9131 223.232 13.3779 223.232 14.8428V42.9238C223.232 45.9121 222.939 47.7578 222.354 48.4609C221.768 49.1641 220.288 49.5156 217.915 49.5156C217.417 49.5156 216.157 49.4277 214.136 49.252L213.96 47.1426H214.004C213.008 47.1426 211.47 47.0547 209.39 46.8789L209.214 43.3193C211.06 43.4658 212.305 43.5391 212.949 43.5391C213.359 43.5391 213.594 43.4951 213.652 43.4072C213.711 43.29 213.74 42.9238 213.74 42.3086V32.7285H210.488C209.756 32.7285 208.804 33.6074 207.632 35.3652V30.4873H199.897C199.165 30.4873 198.213 31.3662 197.041 33.124ZM197.568 40.5947L201.128 39.6279C201.714 40.7705 202.227 41.9717 202.666 43.2314L199.194 44.1982C198.696 42.9385 198.154 41.7373 197.568 40.5947Z" fill="white"/>
</svg>
