<svg width="280" height="60" viewBox="0 0 280 60" fill="none" xmlns="http://www.w3.org/2000/svg">
<path d="M73.8184 20.0723V29.3008C72.6465 27.543 71.6943 26.6641 70.9619 26.6641H70.7422C72.1777 29.5938 73.5254 32.4062 74.7852 35.1016L72.2803 38.3535C71.2256 36.0098 70.5078 34.1055 70.127 32.6406V45.6484C70.127 47.1133 71.2988 48.5781 73.6426 50.043H62.4805C64.8242 48.5781 65.9961 47.1133 65.9961 45.6484V34.6621C65.2344 38.6758 63.9746 42.0889 62.2168 44.9014L60.6787 41.0342C60.1514 44.4326 59.2725 47.4355 58.042 50.043L54.9219 46.0879C55.918 43.5098 56.6211 40.668 57.0312 37.5625C57.4707 34.4277 57.6904 30.4141 57.6904 25.5215V16.6445C57.6904 15.1797 56.5186 13.7148 54.1748 12.25H71.1816V11.2832C71.1816 10.4043 70.0098 9.45215 67.666 8.42676H79.0918C76.748 9.45215 75.5762 10.4043 75.5762 11.2832V12.25H85.7275C86.46 12.25 87.4121 11.3711 88.584 9.61328V18.8418C87.4121 17.084 86.46 16.2051 85.7275 16.2051H61.8652V28.8174C61.8652 32.4209 61.6748 35.834 61.2939 39.0566C63.1689 34.8672 64.5459 30.7363 65.4248 26.6641H65.1172C64.3848 26.6641 63.4326 27.543 62.2607 29.3008V20.0723C63.4326 21.8301 64.3848 22.709 65.1172 22.709H65.9961V21.6982C65.9961 20.2334 64.8242 18.7686 62.4805 17.3037H73.6426C71.2988 18.7686 70.127 20.2334 70.127 21.6982V22.709H70.9619C71.6943 22.709 72.6465 21.8301 73.8184 20.0723ZM88.4521 20.0723V29.3008C87.2803 27.543 86.3281 26.6641 85.5957 26.6641H83.75C85.0684 31.6152 87.0898 36.4053 89.8145 41.0342L87.3096 45.1211C85.4639 41.8398 84.0869 38.3242 83.1787 34.5742V45.6484C83.1787 47.1133 84.3506 48.5781 86.6943 50.043H75.5762C77.9199 48.5781 79.0918 47.1133 79.0918 45.6484V34.6621C77.9199 38.998 76.1914 42.9238 73.9062 46.4395L71.4014 43.0557C74.8877 37.4893 77.3047 32.0254 78.6523 26.6641H77.4658C76.7334 26.6641 75.7812 27.543 74.6094 29.3008V20.0723C75.7812 21.8301 76.7334 22.709 77.4658 22.709H79.0918V21.6982C79.0918 20.2334 77.9199 18.7686 75.5762 17.3037H86.6943C84.3506 18.7686 83.1787 20.2334 83.1787 21.6982V22.709H85.5957C86.3281 22.709 87.2803 21.8301 88.4521 20.0723ZM207.324 33.6074V31.498H198.799V33.6074H207.324ZM207.324 39.0127V36.9033H198.799V39.0127H207.324ZM207.324 42.3086H198.799V44.418H207.324V42.3086ZM190.493 20.1602C193.54 17.3477 195.884 14.1104 197.524 10.4482L201.26 12.3379C199.297 16.8203 196.499 20.6289 192.866 23.7637L190.493 20.1602ZM221.035 23.0605C218.838 19.2227 216.362 15.707 213.608 12.5137L216.992 10.0527C219.805 13.2461 222.295 16.7031 224.463 20.4238L221.035 23.0605ZM213.301 24.0273L217.476 24.7744C217.036 25.5068 216.538 26.5029 215.981 27.7627H219.585C220.317 27.7627 221.27 26.8838 222.441 25.126V34.1348C221.27 32.377 220.317 31.498 219.585 31.498H211.763V33.6074H218.486C219.219 33.6074 220.171 32.7285 221.343 30.9707V39.54C220.171 37.7822 219.219 36.9033 218.486 36.9033H211.763V39.0127H218.486C219.219 39.0127 220.171 38.1338 221.343 36.376V44.9453C220.171 43.1875 219.219 42.3086 218.486 42.3086H211.763V44.418H219.937C220.669 44.418 221.621 43.5391 222.793 41.7812V50.9658C221.621 49.208 220.669 48.3291 219.937 48.3291H198.799V53.0312C197.627 51.2734 196.675 50.3945 195.942 50.3945H191.108C193.452 48.9297 194.624 47.4648 194.624 46V31.8936C193.628 32.2744 192.28 32.6553 190.581 33.0361L189.526 28.9053C196.03 27.4697 201.479 25.3896 205.874 22.665C205.991 22.6943 205.596 22.709 204.688 22.709C203.633 22.709 201.948 22.6357 199.634 22.4893L199.458 18.3145C202.036 18.4609 203.589 18.5342 204.116 18.5342C204.849 18.5342 205.259 18.4463 205.347 18.2705C205.435 18.0654 205.479 17.377 205.479 16.2051V13.5684C205.479 12.1035 204.307 10.6387 201.963 9.17383H213.345C211.001 10.6387 209.829 12.1035 209.829 13.5684V16.2051C209.829 18.666 209.771 20.2627 209.653 20.9951C211.353 19.5889 213.081 18.0361 214.839 16.3369L217.563 19.457C214.224 22.6211 210.386 25.3896 206.05 27.7627H211.235C211.909 26.5908 212.598 25.3457 213.301 24.0273Z" fill="white"/>
</svg>
