<svg width="280" height="60" viewBox="0 0 280 60" fill="none" xmlns="http://www.w3.org/2000/svg">
<path d="M64.6338 40.375V44.1982H80.3662V40.375H64.6338ZM64.6338 36.6396H80.3662V32.9482H64.6338V36.6396ZM75.6641 22.6211C76.6309 20.6875 77.4512 18.6514 78.125 16.5127H67.0508C67.7246 18.2412 68.4717 20.2773 69.292 22.6211H75.6641ZM56.7236 28.9932H88.2764C85.9326 30.458 84.7607 31.9229 84.7607 33.3877V45.4287C84.7607 46.8936 85.9326 48.3584 88.2764 49.8232H83.2227C82.4902 49.8232 81.5381 50.7021 80.3662 52.46V48.0215H64.6338V52.46C63.4619 50.7021 62.5098 49.8232 61.7773 49.8232H56.7236C59.0674 48.3584 60.2393 46.8936 60.2393 45.4287V33.3877C60.2393 31.9229 59.0674 30.458 56.7236 28.9932ZM55.9326 29.0811V19.9844C57.1045 21.7422 58.0566 22.6211 58.7891 22.6211H64.6777C63.8867 20.3359 63.0811 18.2998 62.2607 16.5127H59.8438C59.1113 16.5127 58.1592 17.3916 56.9873 19.1494V9.96484C58.1592 11.7227 59.1113 12.6016 59.8438 12.6016H70.3467V11.2832C70.3467 10.4043 69.1748 9.45215 66.8311 8.42676H78.1689C75.8252 9.45215 74.6533 10.4043 74.6533 11.2832V12.6016H85.1562C85.8887 12.6016 86.8408 11.7227 88.0127 9.96484V19.1494C86.8408 17.3916 85.8887 16.5127 85.1562 16.5127H82.6953C82.1094 18.5049 81.3477 20.541 80.4102 22.6211H86.2109C86.9434 22.6211 87.8955 21.7422 89.0674 19.9844V29.0811C87.8955 27.3232 86.9434 26.4443 86.2109 26.4443H58.7891C58.0566 26.4443 57.1045 27.3232 55.9326 29.0811ZM203.501 23.4121V27.1035H211.499V23.4121H203.501ZM203.501 19.6768H211.499V16.2051H203.501V19.6768ZM196.865 20.8633C194.99 18.8125 192.881 16.7471 190.537 14.667L193.042 11.2393C195.474 13.3193 197.598 15.3994 199.414 17.4795L196.865 20.8633ZM190.361 27.8066C193.232 26.3711 195.825 24.8037 198.14 23.1045L199.326 26.5322V16.7324C199.326 15.2676 198.154 13.8027 195.811 12.3379H204.512C204.717 11.2832 204.98 10.0381 205.303 8.60254L209.609 8.91016C209.346 10.2871 209.126 11.4297 208.95 12.3379H219.189C216.846 13.8027 215.674 15.2676 215.674 16.7324V26.2246L216.816 23.1045C219.863 24.5693 222.485 26.1367 224.683 27.8066L222.749 31.6299C220.405 29.9014 218.047 28.3633 215.674 27.0156V28.0703C215.674 28.9492 216.846 29.9014 219.189 30.9268H209.653V33.3877H220.508C221.24 33.3877 222.192 32.5088 223.364 30.751V40.0674C222.192 38.3096 221.24 37.4307 220.508 37.4307H211.631C214.531 40.4189 218.838 43.0996 224.551 45.4727L223.013 49.4717C217.271 46.8936 212.817 43.9346 209.653 40.5947V45.6484C209.653 47.1133 210.825 48.5781 213.169 50.043H201.831C204.175 48.5781 205.347 47.1133 205.347 45.6484V40.5947C202.183 43.9346 197.729 46.8936 191.987 49.4717L190.449 45.4727C196.162 43.0996 200.469 40.4189 203.369 37.4307H194.492C193.76 37.4307 192.808 38.3096 191.636 40.0674V30.751C192.808 32.5088 193.76 33.3877 194.492 33.3877H205.347V30.9268H203.281H195.811C198.154 29.9014 199.326 28.9492 199.326 28.0703V26.9277C197.598 28.5098 195.151 30.0918 191.987 31.6738L190.361 27.8066ZM218.047 20.7754L215.454 17.4795C217.769 15.3994 219.878 13.334 221.782 11.2832L224.419 14.5352C222.603 16.6445 220.479 18.7246 218.047 20.7754Z" fill="white"/>
</svg>
