<svg width="280" height="60" viewBox="0 0 280 60" fill="none" xmlns="http://www.w3.org/2000/svg">
<path d="M51.404 26C52.124 26.324 54.212 26.504 56.192 26.504C59.324 26.432 62.348 25.82 63.752 25.136C63.788 25.1 63.824 25.1 63.896 25.1C64.616 25.1 65.948 26.684 65.948 27.368C65.948 27.944 65.588 28.232 64.22 28.232H63.068C60.872 28.232 56.984 28.412 54.932 28.988C54.536 29.096 54.176 29.132 53.888 29.132C53.528 29.132 53.276 29.06 53.096 28.952C52.196 28.268 51.26 27.548 51.116 26.396C51.116 26.144 51.224 26 51.404 26ZM47.228 35.18C47.84 35.324 48.56 35.396 49.388 35.396C54.176 35.396 63.032 33.776 69.008 33.344C70.844 33.344 71.06 34.064 71.06 34.64C71.024 35.648 70.232 36.872 69.548 36.908C68.324 36.728 65.228 36.332 63.14 36.332C59.216 36.332 54.752 37.16 51.152 38.276C50.792 38.384 50.396 38.492 50.036 38.492C49.784 38.492 49.568 38.42 49.352 38.312C48.38 37.7 47.552 37.052 46.904 35.936C46.832 35.792 46.796 35.684 46.796 35.576C46.796 35.324 47.012 35.18 47.228 35.18ZM108.824 31.904C108.932 31.904 109.004 31.94 109.148 31.94C111.056 31.724 111.74 31.472 113.936 30.896C114.404 30.752 114.728 30.212 115.232 30.212C115.916 30.212 116.528 31.184 117.176 31.58C117.392 31.76 117.5 31.976 117.5 32.156C117.5 32.912 116.42 33.2 116.204 33.632C115.988 34.352 115.556 36.116 115.304 37.16C116.888 37.016 118.436 36.872 119.84 36.728C120.884 36.62 121.208 37.52 121.352 38.312C121.352 38.708 121.172 38.996 120.596 38.996C119.84 38.96 118.184 38.816 116.924 38.816C114.296 38.816 111.272 38.852 108.752 39.644C108.428 39.788 108.14 39.896 107.852 39.896C106.592 39.68 105.872 38.78 105.584 37.88C105.584 37.664 105.8 37.556 106.124 37.556C106.592 37.556 106.88 37.7 107.456 37.664C109.292 37.592 111.56 37.448 113.864 37.268L114.26 32.876C114.296 32.48 114.296 32.444 113.864 32.588C112.82 32.804 111.272 33.704 110.3 33.848C109.472 33.812 108.86 33.164 108.392 32.768C108.212 32.588 108.14 32.444 108.14 32.336C108.14 32.048 108.536 31.904 108.824 31.904ZM177.008 29.312C178.268 29.132 178.88 30.5 178.952 31.112C178.952 31.652 178.448 32.048 177.224 32.048C176.468 32.048 173.696 31.904 172.04 31.904C168.908 32.048 164.66 32.012 160.736 32.696C160.304 32.768 159.836 32.876 159.332 32.876C158.972 32.876 158.648 32.804 158.288 32.624C156.812 31.58 156.128 31.076 155.84 29.708C155.84 29.456 155.948 29.24 156.2 29.24C156.38 29.24 156.668 29.348 156.992 29.564C157.676 30.14 159.152 30.176 160.124 30.176C162.932 30.104 173.588 29.492 177.008 29.312ZM211.856 25.352C212.36 25.388 212.936 25.388 213.584 25.388C216.68 25.46 220.856 24.812 222.836 24.308C223.52 24.092 224.096 23.336 224.852 23.228C225.788 23.408 228.2 24.2 228.416 25.28C228.416 25.604 228.128 25.928 227.516 26.324C226.94 26.72 226.256 27.152 225.896 27.836C223.016 33.056 219.956 37.16 212.252 39.644C211.748 39.824 211.352 39.896 211.064 39.896C210.74 39.896 210.56 39.752 210.56 39.608C210.56 39.356 210.956 38.996 211.712 38.6C217.472 35.72 221.18 31.58 222.764 27.152C222.8 27.044 222.836 26.936 222.836 26.864C222.836 26.504 222.548 26.396 222.188 26.396C220.604 26.54 217.868 26.936 216.572 27.62C216.248 27.8 215.744 27.944 215.132 27.944C213.62 28.016 212.396 26.9 211.568 26.36C211.316 26.108 211.208 25.892 211.208 25.712C211.208 25.496 211.388 25.352 211.856 25.352ZM232.16 38.78C232.196 39.968 231.26 40.544 230 40.472C229.064 40.472 228.488 40.112 227.912 39.104C226.868 37.16 225.572 35.936 223.952 34.856C223.592 34.64 223.376 34.388 223.376 34.208C223.376 34.064 223.556 33.956 223.916 33.956C227.048 34.46 229.316 35.252 231.116 36.692C231.836 37.268 232.16 38.096 232.16 38.78Z" fill="white"/>
</svg>
