<svg width="280" height="60" viewBox="0 0 280 60" fill="none" xmlns="http://www.w3.org/2000/svg">
<path d="M16.992 33.168C16.992 32.784 17.056 32.56 17.056 32.08C17.056 29.84 16.288 24.4 15.328 22.032C14.784 20.72 15.296 19.792 16.992 19.792C17.632 19.792 18.304 19.824 19.008 19.824C20.448 19.824 22.016 19.728 23.52 19.728C25.184 19.728 25.184 21.104 24.736 22.224C24.64 22.48 24.608 23.248 24.608 24.208C24.608 26.992 24.928 31.6 25.28 32.336C25.44 32.656 25.504 32.912 25.504 33.168C25.504 34.928 23.36 34.416 21.664 34.416C19.776 34.416 16.992 35.216 16.992 33.168ZM35.008 19.824C36.864 19.824 39.072 19.248 39.072 21.2C39.072 21.52 38.976 21.904 38.784 22.32C38.528 22.928 38.304 23.92 38.144 24.976C37.44 30.096 36.032 38.736 27.968 42.704C27.296 43.024 25.696 43.632 25.696 42.672C25.696 42.384 25.888 41.968 26.272 41.456C29.088 37.904 29.696 33.904 29.696 30.384C29.696 28.56 29.504 26.832 29.408 25.36C29.376 24.624 29.216 23.376 28.704 22.672C27.744 21.456 27.872 19.696 30.048 19.696C31.36 19.696 33.152 19.824 35.008 19.824ZM47.392 28.4C47.392 27.184 46.848 24.72 46.144 23.824C45.792 23.376 45.6 22.832 45.6 22.288C45.6 21.328 46.24 20.4 47.872 20.4C48.128 20.4 48.416 20.432 48.704 20.464C50.368 20.72 54.944 20.848 59.392 20.848C63.968 20.848 68.416 20.72 69.312 20.464C69.664 20.368 69.984 20.304 70.304 20.304C71.776 20.304 72.864 21.36 72.864 22.736C72.864 23.056 72.8 23.408 72.672 23.76C72.384 24.496 71.84 25.552 71.552 26.32C69.376 31.824 65.472 35.312 64.544 36.016C64.288 36.208 63.968 36.336 63.712 36.336C63.328 36.336 63.008 36.08 63.008 35.536C63.008 35.28 63.072 34.992 63.232 34.608C63.872 32.976 64.416 30.608 64.416 30.288C64.416 29.776 64.224 29.488 63.68 29.424C62.656 29.328 61.12 29.264 59.456 29.264C56.704 29.264 53.504 29.424 51.264 29.872C50.4 30.032 50.144 30.768 49.28 30.768C47.936 30.768 47.392 29.68 47.392 28.4ZM57.312 43.088C56.864 43.088 56.576 42.672 56.576 41.904C56.576 41.392 56.64 40.88 56.64 40.4C56.64 38.48 56.192 36.816 55.424 34.864C55.168 34.16 54.592 33.648 54.592 33.648C54.24 33.392 54.048 33.008 54.048 32.656C54.048 32.08 54.496 31.536 55.392 31.536C55.52 31.536 55.68 31.536 55.84 31.568C56.288 31.664 56.928 31.664 57.568 31.664C58.976 31.664 60.576 31.536 61.088 31.472C61.28 31.44 61.44 31.44 61.6 31.44C62.304 31.44 62.656 31.696 62.656 32.208C62.656 32.4 62.624 32.592 62.528 32.816C62.368 33.232 62.272 33.712 62.24 34.256C61.856 38.32 60.032 41.2 58.464 42.512C58.016 42.896 57.632 43.088 57.312 43.088ZM81.632 33.168C81.632 32.784 81.696 32.56 81.696 32.08C81.696 29.84 80.928 24.4 79.968 22.032C79.424 20.72 79.936 19.792 81.632 19.792C82.272 19.792 82.944 19.824 83.648 19.824C85.088 19.824 86.656 19.728 88.16 19.728C89.824 19.728 89.824 21.104 89.376 22.224C89.28 22.48 89.248 23.248 89.248 24.208C89.248 26.992 89.568 31.6 89.92 32.336C90.08 32.656 90.144 32.912 90.144 33.168C90.144 34.928 88 34.416 86.304 34.416C84.416 34.416 81.632 35.216 81.632 33.168ZM99.648 19.824C101.504 19.824 103.712 19.248 103.712 21.2C103.712 21.52 103.616 21.904 103.424 22.32C103.168 22.928 102.944 23.92 102.784 24.976C102.08 30.096 100.672 38.736 92.608 42.704C91.936 43.024 90.336 43.632 90.336 42.672C90.336 42.384 90.528 41.968 90.912 41.456C93.728 37.904 94.336 33.904 94.336 30.384C94.336 28.56 94.144 26.832 94.048 25.36C94.016 24.624 93.856 23.376 93.344 22.672C92.384 21.456 92.512 19.696 94.688 19.696C96 19.696 97.792 19.824 99.648 19.824ZM120.192 42.288C121.76 40.72 122.144 37.936 122.144 35.568C122.144 35.28 122.144 35.024 122.144 34.736C119.84 34.864 117.664 35.088 116.032 35.344C114.304 35.632 112.192 35.792 112 33.488C111.872 31.792 111.488 30.736 111.2 29.936C110.464 28.112 110.752 26.416 112.896 26.576C118.016 27.024 129.696 27.12 134.592 26.32C136.544 26.032 137.536 27.248 136.832 29.168C136.448 30.32 136 31.76 135.776 33.04C135.584 34.256 135.424 35.216 134.016 35.216C133.728 35.216 133.344 35.184 132.928 35.088C131.968 34.896 130.752 34.768 129.408 34.704C128.8 38 126.944 42.352 121.664 44.016C120.928 44.24 119.392 44.528 119.392 43.664C119.392 43.344 119.616 42.864 120.192 42.288ZM131.584 17.392C132.672 17.392 133.6 17.552 133.6 18.704C133.6 19.888 133.056 21.072 133.056 22.608C133.088 24.336 132.352 25.072 130.592 24.816C127.424 24.336 121.76 24.368 118.016 24.816C116.128 25.04 115.008 24.464 114.944 23.024C114.88 22.128 114.656 21.232 114.368 19.6C114.112 17.936 115.232 17.424 116.768 17.424C118.144 17.424 119.808 17.488 122.176 17.488C126.784 17.488 129.248 17.392 131.584 17.392ZM147.328 36.784C146.368 36.784 145.664 36.432 145.664 35.888C145.664 35.504 146.048 34.96 146.848 34.512C149.472 32.944 153.952 28.752 154.944 26.928C155.264 26.352 155.616 25.52 155.616 24.88V24.624C155.616 23.856 156.096 22.928 157.312 22.928C157.504 22.928 157.728 22.96 157.952 22.992C159.584 23.312 161.184 23.44 162.336 23.44C163.04 23.44 163.424 23.376 164.032 23.376C165.44 23.376 166.528 23.952 166.528 24.912C166.528 25.264 166.4 25.648 166.112 26.096C165.76 26.704 164.992 27.088 164.48 27.76C162.816 29.968 160.384 32.016 158.144 33.328C158.464 33.328 159.456 33.264 160.384 33.136H160.64C161.44 33.136 161.824 33.712 161.824 34.384C161.824 34.544 161.792 34.8 161.76 34.992C161.504 36.048 161.056 38.16 161.056 40.016C161.056 40.624 161.152 41.104 161.152 41.648C161.152 42.48 160.672 42.992 160 42.992C159.936 42.992 159.808 42.992 159.68 42.96C159.2 42.928 158.56 42.896 157.856 42.896C157.248 42.896 156.672 42.992 156.064 42.992C155.296 42.992 154.752 42.544 154.752 41.808C154.752 41.36 154.848 41.04 154.848 40.496C154.848 38.992 154.592 36.656 154.048 35.312C152.032 36.144 149.728 36.688 147.552 36.784H147.328ZM198.112 22.992C198.4 21.648 198.912 21.008 199.392 21.008C200.576 21.008 200.608 23.6 200.608 24.752C200.608 37.168 190.304 41.584 189.504 42.64C188.928 43.344 188.384 43.696 187.872 43.696C187.392 43.696 186.944 43.44 186.496 42.96C185.024 41.392 183.392 40.336 181.824 39.312C181.376 38.992 181.152 38.512 181.152 38.032C181.152 37.328 181.6 36.656 182.464 36.56C190.624 35.824 196.608 30.704 198.112 22.992ZM177.024 26.224C176.96 24.624 176.64 23.472 176.448 22.768C176.032 21.264 176.64 19.92 178.24 20.176C181.12 20.592 186.208 20.112 188.224 19.856C189.696 19.664 190.784 20.944 190.336 22.48C190.048 23.568 189.824 24.912 189.696 26.096C189.568 27.44 189.152 28.08 188.032 27.952C186.368 27.76 181.248 27.728 179.456 28.016C178.336 28.176 177.088 27.728 177.024 26.224ZM179.584 34.832C178.592 34.96 177.952 34.96 177.728 33.648C177.6 32.848 177.44 31.536 177.312 31.024C177.056 30 177.376 29.136 178.56 29.232C181.056 29.456 185.248 29.552 187.712 29.2C189.056 29.008 189.408 29.936 189.12 31.216C188.928 31.952 188.864 32.72 188.704 33.52C188.544 34.48 188.416 34.832 187.392 34.672C185.344 34.448 181.216 34.64 179.584 34.832ZM211.648 26.896C210.624 25.52 211.68 24.112 213.536 24.4C216.064 24.784 225.056 24.688 226.88 24.432C228.448 24.24 229.6 24.688 229.472 26.288C229.088 31.184 228.16 37.328 228.16 39.088C228.16 40.304 228.544 41.808 226.688 41.808C225.824 41.808 224.896 41.776 223.936 41.776C220.352 41.776 216.704 42.032 215.776 42.032C214.784 42.032 214.592 41.616 214.496 40.944C214.368 40.176 213.088 38.096 214.912 38.096C215.2 38.096 215.584 38.16 215.968 38.352C216.416 38.544 221.44 38.48 221.984 38.416C222.24 38.384 222.336 38.288 222.336 38.064C222.336 37.936 222.304 37.52 222.24 37.008C219.392 37.04 216.064 37.168 215.552 37.328C214.528 37.584 213.824 36.944 213.824 36.048C213.824 35.28 212.992 34.64 212.992 33.744C212.992 32.88 213.888 32.688 214.784 32.816C215.648 32.976 219.008 33.072 221.76 33.008C221.696 32.656 221.664 32.208 221.632 32.08C221.6 31.728 221.6 31.696 221.312 31.696C219.648 31.696 216.224 31.536 214.368 31.792C214.144 31.824 213.888 31.856 213.728 31.856C212.544 31.856 212.576 31.088 212.576 30.064C212.576 28.944 211.968 27.28 211.648 26.896ZM243.616 33.712C243.616 33.136 243.712 32.528 243.712 31.952C243.712 30.832 243.584 29.808 243.424 29.264C243.04 27.76 243.072 26.224 245.056 26.224C245.312 26.224 245.6 26.256 245.952 26.32C248.256 26.672 257.632 26.832 261.12 26.512C264.288 26.16 262.784 29.936 262.784 32.208C262.784 32.944 262.944 33.424 262.944 34.064C262.944 35.44 261.696 36.016 260.544 35.856C256.672 35.376 250.528 35.024 246.048 35.664C244.704 35.856 243.616 35.216 243.616 33.712Z" fill="white"/>
</svg>
