<svg width="280" height="60" viewBox="0 0 280 60" fill="none" xmlns="http://www.w3.org/2000/svg">
<path d="M84.9365 27.8945H89.8145C87.4707 28.9199 86.2988 29.8721 86.2988 30.751V30.7949H86.6943C87.4268 30.7949 88.3789 29.916 89.5508 28.1582V37.4746C88.3789 35.7168 87.4268 34.8379 86.6943 34.8379H86.2988V42.9238C86.2988 44.2715 86.2549 45.2969 86.167 46C86.1084 46.7324 85.9912 47.377 85.8154 47.9336C85.6396 48.4902 85.2881 48.8711 84.7607 49.0762C84.2627 49.3105 83.7061 49.4717 83.0908 49.5596C82.5049 49.6475 81.6406 49.6914 80.498 49.6914C79.4727 49.6914 78.0811 49.6328 76.3232 49.5156L76.1475 45.4727C77.7588 45.5898 79.0039 45.6484 79.8828 45.6484C80.9375 45.6484 81.5381 45.5312 81.6846 45.2969C81.8311 45.0625 81.9043 44.3154 81.9043 43.0557V34.8379H69.1162C68.3838 34.8379 67.4316 35.7168 66.2598 37.4746V28.1582C67.4316 29.916 68.3838 30.7949 69.1162 30.7949H81.9043V30.751C81.9043 29.8721 80.7324 28.9199 78.3887 27.8945H83.2227L80.8496 26.5322C82.373 23.4854 83.8086 19.6328 85.1562 14.9746L88.8916 16.249C87.5732 21.1709 86.2549 25.0527 84.9365 27.8945ZM66.4795 12.0303C75.3564 11.8545 82.4902 11.1074 87.8809 9.78906L88.584 13.7002C82.6953 15.1064 75.4297 15.8975 66.7871 16.0732L66.4795 12.0303ZM72.7637 27.2354L69.1602 28.5537C68.1641 24.8916 67.0654 21.5957 65.8643 18.666L69.4238 17.3037C70.6543 20.2041 71.7676 23.5146 72.7637 27.2354ZM76.3232 27.499C75.3564 23.6025 74.3164 20.248 73.2031 17.4355L76.8506 16.1611C78.0518 19.1201 79.1357 22.5186 80.1025 26.3564L76.3232 27.499ZM68.501 38.5293L71.2695 35.4531C73.3496 37.5918 75.3857 40.0381 77.3779 42.792L74.5654 45.8242C72.5732 43.0996 70.5518 40.668 68.501 38.5293ZM54.9658 17.2158L58.4814 15.2383C59.7119 18.1094 60.5469 20.6729 60.9863 22.9287V13.9639C60.9863 12.499 59.8145 11.0342 57.4707 9.56934H68.6328C66.2891 11.0342 65.1172 12.499 65.1172 13.9639V45.6484C65.1172 47.1133 66.2891 48.5781 68.6328 50.043H57.4707C59.8145 48.5781 60.9863 47.1133 60.9863 45.6484V37.4746C59.8438 38.4707 58.1885 39.5693 56.0205 40.7705L54.6143 36.5957C57.1631 35.1602 59.2871 33.8125 60.9863 32.5527V26.4004L58.9209 27.7188C57.8369 24.4375 56.5186 20.9365 54.9658 17.2158ZM203.237 36.332V17.3037H202.095V18.1826C202.095 19.0615 203.267 20.0137 205.61 21.0391H199.15C200.645 25.4922 201.904 29.1396 202.93 31.9814L200.029 34.5742C199.912 34.3398 199.766 33.959 199.59 33.4316C199.443 32.9043 199.238 32.2305 198.975 31.4102C198.711 30.5898 198.638 29.8867 198.755 29.3008V45.6484C198.755 47.1133 199.927 48.5781 202.271 50.043H191.196C193.54 48.5781 194.712 47.1133 194.712 45.6484V33.2119C194.185 36.376 193.364 38.9688 192.251 40.9902L189.702 36.5518C192.075 31.5127 193.687 26.3418 194.536 21.0391H193.438C192.705 21.0391 191.753 21.918 190.581 23.6758V14.3594C191.753 16.1172 192.705 16.9961 193.438 16.9961H194.712V13.9639C194.712 12.499 193.54 11.0342 191.196 9.56934H202.271C199.927 11.0342 198.755 12.499 198.755 13.9639V16.9961H200.776V16.1172C200.776 15.2383 199.604 14.2861 197.261 13.2607H203.237V12.4258C203.237 11.5469 202.065 10.5947 199.722 9.56934H210.972C208.628 10.5947 207.456 11.5469 207.456 12.4258V13.2607H217.476V12.4258C217.476 11.5469 216.304 10.5947 213.96 9.56934H225.166C222.822 10.5947 221.65 11.5469 221.65 12.4258V13.2607H222.222C222.515 13.2607 223.174 12.748 224.199 11.7227V18.8418C223.174 17.8164 222.515 17.3037 222.222 17.3037H221.65V36.332H221.694C222.427 36.332 223.379 35.4531 224.551 33.6953V42.8799C223.379 41.1221 222.427 40.2432 221.694 40.2432H216.333C219.321 42.1768 222.046 44.3154 224.507 46.6592L222.529 50.4824C219.834 48.0215 216.567 45.751 212.729 43.6709L214.224 40.2432H209.829L211.455 43.2314C210.254 44.5205 208.745 45.7949 206.929 47.0547C205.142 48.3145 203.237 49.3398 201.216 50.1309L199.546 46.2197C203.12 44.5791 205.947 42.6016 208.027 40.2871L200.293 40.2432V39.1885C200.293 38.3096 199.121 37.3574 196.777 36.332H203.237ZM207.456 32.2891V36.332H217.476V32.2891H207.456ZM207.456 24.7744V28.6855H217.476V24.7744H207.456ZM207.456 21.1709H217.476V17.3037H207.456V21.1709Z" fill="white"/>
</svg>
