<svg width="280" height="60" viewBox="0 0 280 60" fill="none" xmlns="http://www.w3.org/2000/svg">
<path d="M50.0615 26.4775V16.8975C51.2334 18.6553 52.1855 19.5342 52.918 19.5342H63.5967V14.9639C63.5967 13.499 62.4248 12.0342 60.0811 10.5693H71.4189C69.0752 12.0342 67.9033 13.499 67.9033 14.9639V19.5342H78.582C79.3145 19.5342 80.2666 18.6553 81.4385 16.8975V26.4775C80.2666 24.7197 79.3145 23.8408 78.582 23.8408H68.0791C68.5479 28.8799 69.9688 33.333 72.3418 37.2002C74.7148 41.0674 77.9814 44.2314 82.1416 46.6924L79.8564 50.3838C76.5752 48.5674 73.7041 46.0332 71.2432 42.7812C68.8115 39.5293 67.0244 35.8672 65.8818 31.7949C64.7686 35.8672 62.9521 39.5293 60.4326 42.7812C57.9131 46.0332 54.9834 48.5674 51.6436 50.3838L49.3584 46.6924C53.5186 44.2314 56.7852 41.0674 59.1582 37.2002C61.5312 33.333 62.9521 28.8799 63.4209 23.8408H52.918C52.1855 23.8408 51.2334 24.7197 50.0615 26.4775ZM141.582 33.5967H151.25V26.7412H141.582V33.5967ZM141.582 44.4072H151.25V37.5518H141.582V44.4072ZM151.25 22.7861V15.9307H141.582V22.7861H151.25ZM123.696 15.7988C124.868 17.5566 125.82 18.4355 126.553 18.4355H128.838V14.9639C128.838 13.499 127.666 12.0342 125.322 10.5693H136.484C134.141 12.0342 132.969 13.499 132.969 14.9639V18.4355H133.979C134.712 18.4355 135.664 17.5566 136.836 15.7988V25.2471C135.664 23.4893 134.712 22.6104 133.979 22.6104H133.76C135.137 25.7744 136.382 28.9971 137.495 32.2783V16.2822C137.495 14.8174 136.323 13.3525 133.979 11.8877H158.94C156.597 13.3525 155.425 14.8174 155.425 16.2822V46.209C155.425 47.6738 156.597 49.1387 158.94 50.6035H154.106C153.374 50.6035 152.422 51.4824 151.25 53.2402V48.3623H141.582V53.2402C140.41 51.4824 139.458 50.6035 138.726 50.6035H133.979C136.323 49.1387 137.495 47.6738 137.495 46.209V35.3105L135.781 37.1123C134.609 34.2998 133.672 31.7217 132.969 29.3779V46.6484C132.969 48.1133 134.141 49.5781 136.484 51.043H125.322C127.666 49.5781 128.838 48.1133 128.838 46.6484V31.8828C127.959 36.1602 126.479 39.8955 124.399 43.0889L122.158 38.7822C125.117 33.4795 127.124 28.0889 128.179 22.6104H126.553C125.82 22.6104 124.868 23.4893 123.696 25.2471V15.7988ZM220.798 25.291C221.354 23.6797 221.853 21.9512 222.292 20.1055H215.524C215.788 21.248 216.198 22.9766 216.755 25.291H220.798ZM206.516 43.7041V34.6953C207.688 36.4531 208.64 37.332 209.372 37.332H216.535V37.2002V34.8711H210.603C209.87 34.8711 208.918 35.75 207.746 37.5078V28.7188C208.918 30.4766 209.87 31.3555 210.603 31.3555H216.535V28.8945H209.768C209.035 28.8945 208.083 29.7734 206.911 31.5312V22.6543C208.083 24.4121 209.035 25.291 209.768 25.291H212.58C212.17 23.4453 211.73 21.7168 211.262 20.1055H207.702V24.1484C206.677 23.123 206.018 22.6104 205.725 22.6104H204.846V30.7842C204.875 30.6963 205.754 30.3008 207.482 29.5977V33.7285C207.043 33.9336 206.164 34.3877 204.846 35.0908V44.3193C204.846 47.2783 204.626 49.0947 204.187 49.7686C203.747 50.4717 202.604 50.8232 200.759 50.8232C200.349 50.8232 199.279 50.75 197.551 50.6035L197.419 46.6924C199.06 46.8389 199.997 46.9121 200.231 46.9121C200.437 46.9121 200.554 46.8096 200.583 46.6045C200.642 46.3994 200.671 45.7109 200.671 44.5391V36.7168C199.851 37.0977 198.781 37.4492 197.463 37.7715L197.199 33.5088C198.283 33.2451 199.44 32.8496 200.671 32.3223V22.6104H200.056C199.323 22.6104 198.371 23.4893 197.199 25.2471V15.9307C198.371 17.6885 199.323 18.5674 200.056 18.5674H200.671V14.9639C200.671 13.499 199.499 12.0342 197.155 10.5693H208.361C206.018 12.0342 204.846 13.499 204.846 14.9639V18.5674H206.779V14.7881C207.805 15.8135 208.464 16.3262 208.757 16.3262H209.24C208.713 14.7148 208.2 13.3525 207.702 12.2393L211.174 10.7891C211.789 12.1367 212.478 13.9824 213.239 16.3262H214.074V14.5684C214.074 13.1035 212.902 11.6387 210.559 10.1738H221.369C219.025 11.6387 217.854 13.1035 217.854 14.5684V16.3262H219.875V14.5684C219.875 13.1035 218.703 11.6387 216.359 10.1738H227.17C224.826 11.6387 223.654 13.1035 223.654 14.5684V16.3262H224.533C225.178 14.4805 225.808 12.6348 226.423 10.7891L229.982 11.8877C229.426 13.6748 228.942 15.1543 228.532 16.3262H228.752C229.045 16.3262 229.704 15.8135 230.729 14.7881V22.7422C229.558 20.9844 228.605 20.1055 227.873 20.1055H226.467C226.057 21.9512 225.617 23.6797 225.148 25.291H227.653C228.386 25.291 229.338 24.4121 230.51 22.6543V31.5312C229.338 29.7734 228.386 28.8945 227.653 28.8945H220.842V31.3555H226.774C227.507 31.3555 228.459 30.4766 229.631 28.7188V37.5078C228.459 35.75 227.507 34.8711 226.774 34.8711H220.842V37.2002V37.332H228.093C228.825 37.332 229.777 36.4531 230.949 34.6953V43.7041C229.777 41.9463 228.825 41.0674 228.093 41.0674H222.072C223.537 43.9678 226.672 45.9453 231.477 47L230.554 51.2627C227.829 50.6475 225.441 49.5781 223.391 48.0547C221.369 46.5605 219.86 44.8613 218.864 42.957C217.78 44.8613 216.169 46.5605 214.03 48.0547C211.892 49.5781 209.401 50.6475 206.56 51.2627L205.549 47C210.559 45.9453 213.811 43.9678 215.305 41.0674H209.372C208.64 41.0674 207.688 41.9463 206.516 43.7041Z" fill="white"/>
</svg>
