<svg width="280" height="60" viewBox="0 0 280 60" fill="none" xmlns="http://www.w3.org/2000/svg">
<path d="M24.832 41.36C24.224 41.616 22.72 42.096 22.72 41.232C22.72 40.976 22.912 40.592 23.328 40.112C25.856 37.232 26.848 30.48 26.784 27.088C26.784 26.448 26.592 25.104 26.304 24.656C25.632 23.728 25.472 22 27.168 22C27.328 22 27.52 22.032 27.744 22.064C29.824 22.48 33.6 22.32 35.968 22.32C37.184 22.32 37.728 23.536 37.184 24.656C36.928 25.136 36.768 26.064 36.64 26.8C36.192 29.008 32.192 38.192 24.832 41.36ZM45.632 26.384C46.016 26.864 46.56 27.056 47.136 27.12C48.608 29.872 49.728 35.888 49.728 39.44C49.728 41.68 48.224 41.36 47.296 40.048C45.312 37.264 42.144 33.424 38.368 30.576C36.992 29.552 36.704 28.368 38.784 27.984C39.648 27.824 40.64 27.44 41.632 27.056C41.888 27.152 42.24 27.216 42.592 27.184C43.616 27.088 44.928 27.408 45.632 26.384ZM41.504 25.232C41.472 24.368 41.184 22.256 41.088 21.456C40.896 20.272 41.152 19.888 42.016 19.888C42.464 19.888 43.616 19.92 44.16 19.92C44.64 19.92 44.896 20.4 44.864 21.104C44.832 22.288 44.896 23.408 44.992 24.816C45.056 25.808 44.768 26.128 44.128 26.192C43.584 26.256 43.008 26.192 42.528 26.224C41.888 26.288 41.504 26.064 41.504 25.232ZM46.144 24.944C46.176 23.952 46.08 22.192 45.952 21.232C45.792 20.144 45.984 19.792 46.88 19.856C47.68 19.92 48.224 19.92 49.152 19.888C49.824 19.856 49.856 20.432 49.792 21.104C49.664 22.32 49.664 23.792 49.696 24.848C49.696 25.904 49.344 26.192 48.736 26.16C48.032 26.096 47.712 26.16 47.232 26.16C46.592 26.16 46.144 25.776 46.144 24.944ZM86.816 42.352C86.816 42.096 87.04 41.68 87.456 41.264C88.8 39.92 89.952 36.08 89.952 34.64C89.952 33.808 88.256 34 87.36 34C85.632 34 83.84 34.096 82.336 34.192C80.384 34.256 77.472 35.12 77.472 32.848C77.472 31.792 77.312 30.768 76.768 29.808C75.936 28.432 76.224 27.056 78.464 27.056C78.752 27.056 79.04 27.088 79.392 27.12C82.56 27.536 95.008 27.408 97.28 27.12C99.424 26.832 100.128 27.664 99.552 29.392C99.296 30.064 99.008 30.928 98.752 31.632C96.8 37.168 93.12 40.848 88.864 42.448C88.224 42.704 86.816 43.12 86.816 42.352ZM79.232 23.76C79.136 21.232 76.736 17.232 80.928 17.712C82.816 17.904 85.28 18 87.712 18C91.296 18 94.24 17.744 95.872 17.744C97.696 17.744 98.304 18.896 97.664 20.368C97.408 21.04 97.024 22.96 96.896 23.984C96.768 25.072 96.096 25.808 94.72 25.808C93.248 25.808 87.776 25.68 84.256 25.68C81.536 25.68 79.36 26.352 79.232 23.76ZM128.576 39.696C128.416 38.864 128.096 37.776 127.84 37.2C127.648 36.784 127.552 36.4 127.552 36.112C127.552 35.248 128.352 34.896 129.856 34.896H130.304C132.192 34.992 134.56 35.056 137.056 35.088L136.48 30.576C134.944 30.64 133.568 30.736 132.608 30.832C132.416 30.864 132.256 30.864 132.096 30.864C130.432 30.864 129.344 30 129.248 28.368C129.12 26.512 128.608 25.2 128.256 24.432C128.096 24.048 128 23.664 128 23.344C128 22.128 129.12 21.424 130.752 21.424C130.944 21.424 131.136 21.424 131.328 21.456C132.768 21.584 134.272 21.648 135.84 21.648C140.128 21.648 144.704 21.232 148.448 21.104H148.8C150.624 21.104 151.968 21.872 151.968 23.184C151.968 23.44 151.904 23.728 151.808 24.016C151.232 25.52 151.04 26.576 150.976 28.208C150.88 29.68 150.176 30.512 148.576 30.512C147.584 30.512 146.464 30.416 144.608 30.416C144.48 30.416 144.352 30.416 144.224 30.416L143.776 34.96C145.92 34.864 147.968 34.704 149.76 34.448C150.144 34.384 150.464 34.352 150.752 34.352C152 34.352 152.48 34.832 152.48 35.632C152.48 36.016 152.352 36.464 152.16 36.976C151.808 37.776 151.616 38.672 151.488 39.536C151.36 40.464 151.168 40.848 149.536 40.848C149.28 40.848 149.024 40.848 148.704 40.816C147.136 40.72 145.408 40.656 143.616 40.656C139.744 40.656 135.552 40.88 131.968 41.136C131.584 41.168 131.2 41.2 130.848 41.2C129.696 41.2 128.8 40.912 128.576 39.696ZM188.192 42.288C189.76 40.72 190.144 37.936 190.144 35.568C190.144 35.28 190.144 35.024 190.144 34.736C187.84 34.864 185.664 35.088 184.032 35.344C182.304 35.632 180.192 35.792 180 33.488C179.872 31.792 179.488 30.736 179.2 29.936C178.464 28.112 178.752 26.416 180.896 26.576C186.016 27.024 197.696 27.12 202.592 26.32C204.544 26.032 205.536 27.248 204.832 29.168C204.448 30.32 204 31.76 203.776 33.04C203.584 34.256 203.424 35.216 202.016 35.216C201.728 35.216 201.344 35.184 200.928 35.088C199.968 34.896 198.752 34.768 197.408 34.704C196.8 38 194.944 42.352 189.664 44.016C188.928 44.24 187.392 44.528 187.392 43.664C187.392 43.344 187.616 42.864 188.192 42.288ZM199.584 17.392C200.672 17.392 201.6 17.552 201.6 18.704C201.6 19.888 201.056 21.072 201.056 22.608C201.088 24.336 200.352 25.072 198.592 24.816C195.424 24.336 189.76 24.368 186.016 24.816C184.128 25.04 183.008 24.464 182.944 23.024C182.88 22.128 182.656 21.232 182.368 19.6C182.112 17.936 183.232 17.424 184.768 17.424C186.144 17.424 187.808 17.488 190.176 17.488C194.784 17.488 197.248 17.392 199.584 17.392ZM234.848 36.784C233.888 36.784 233.184 36.432 233.184 35.888C233.184 35.504 233.568 34.96 234.368 34.512C236.992 32.944 241.472 28.752 242.464 26.928C242.784 26.352 243.136 25.52 243.136 24.88V24.624C243.136 23.856 243.616 22.928 244.832 22.928C245.024 22.928 245.248 22.96 245.472 22.992C247.104 23.312 248.704 23.44 249.856 23.44C250.56 23.44 250.944 23.376 251.552 23.376C252.96 23.376 254.048 23.952 254.048 24.912C254.048 25.264 253.92 25.648 253.632 26.096C253.28 26.704 252.512 27.088 252 27.76C250.336 29.968 247.904 32.016 245.664 33.328C245.984 33.328 246.976 33.264 247.904 33.136H248.16C248.96 33.136 249.344 33.712 249.344 34.384C249.344 34.544 249.312 34.8 249.28 34.992C249.024 36.048 248.576 38.16 248.576 40.016C248.576 40.624 248.672 41.104 248.672 41.648C248.672 42.48 248.192 42.992 247.52 42.992C247.456 42.992 247.328 42.992 247.2 42.96C246.72 42.928 246.08 42.896 245.376 42.896C244.768 42.896 244.192 42.992 243.584 42.992C242.816 42.992 242.272 42.544 242.272 41.808C242.272 41.36 242.368 41.04 242.368 40.496C242.368 38.992 242.112 36.656 241.568 35.312C239.552 36.144 237.248 36.688 235.072 36.784H234.848Z" fill="white"/>
</svg>
